<svg width="602" height="601" viewBox="0 0 602 601" fill="none" xmlns="http://www.w3.org/2000/svg">
<path d="M239.567 255.951L261.521 268.745C262.58 269.361 263.708 269.857 264.88 270.225C267.623 271.149 270.569 271.299 273.395 270.66L333.61 257.003C333.7 257.003 333.791 256.973 333.881 256.958L355.052 252.36C356.443 252.059 357.322 250.685 357.029 249.295C356.728 247.905 355.353 247.026 353.962 247.319L345.966 249.062C346.687 247.83 347.228 246.508 347.597 245.133L358.953 242.661C360.343 242.361 361.223 240.986 360.922 239.596C360.621 238.206 359.246 237.32 357.856 237.62L348.048 239.761C347.988 239.048 347.875 238.342 347.717 237.643C347.619 237.192 347.492 236.756 347.356 236.328L356.728 234.262C358.119 233.962 359.005 232.587 358.705 231.197C358.404 229.807 357.029 228.921 355.638 229.221L344.876 231.565C343.974 230.386 342.915 229.334 341.72 228.455L353.143 225.969C354.534 225.668 355.413 224.293 355.112 222.903C354.812 221.514 353.436 220.635 352.046 220.928L331.694 225.33C330.724 225.368 329.755 225.495 328.8 225.713L318.211 228.125L327.41 215.188C328.237 214.024 327.958 212.408 326.794 211.59C325.629 210.763 324.013 211.041 323.194 212.206L310.688 229.83L273.786 238.199L220.312 207.03C212.541 202.499 202.568 205.129 198.029 212.889C193.497 220.657 196.127 230.634 203.898 235.164" stroke="#C3C8C9" stroke-width="1.5" stroke-linecap="square" stroke-linejoin="round"/>
<path d="M69.7072 443.493L42.7187 463.574L54.5633 476.833L64.3937 472.514L66.6484 492.873L85.227 519.564L94.7568 471.064L69.7072 443.493Z" fill="#102228"/>
<path d="M240.184 294.903L203.305 390.124C197.608 404.841 181.051 412.158 166.328 406.456C151.605 400.762 144.285 384.212 149.989 369.495L186.868 274.274C192.565 259.557 209.122 252.24 223.845 257.942C238.568 263.636 245.888 280.186 240.184 294.903Z" fill="#C3C8C9"/>
<path d="M192.362 405.157L98.725 482.956L62.0338 438.828L155.671 361.028C167.478 351.217 185.004 352.832 194.82 364.634L195.969 366.024C205.785 377.826 204.169 395.345 192.362 405.157Z" fill="#C3C8C9"/>
<path d="M246.925 493.459L246.399 527.084L264.136 525.777L266.706 515.357L284.225 525.973L316.715 527.513L284.06 490.408L246.925 493.459Z" fill="#102228"/>
<path d="M241.236 277.662L264.797 376.977C268.442 392.325 258.943 407.726 243.581 411.362C228.226 415.005 212.819 405.51 209.182 390.154L185.62 290.839C181.975 275.491 191.475 260.09 206.837 256.454C222.191 252.811 237.598 262.306 241.236 277.662Z" fill="#ADE28A"/>
<path d="M263.377 368.841L292.56 486.735L236.944 500.49L207.761 382.597C204.086 367.729 213.158 352.697 228.031 349.023L229.782 348.588C244.655 344.906 259.702 353.982 263.377 368.849V368.841Z" fill="#ADE28A"/>
<path d="M231.556 195.633C239.222 195.633 245.437 189.421 245.437 181.757C245.437 174.094 239.222 167.882 231.556 167.882C223.889 167.882 217.674 174.094 217.674 181.757C217.674 189.421 223.889 195.633 231.556 195.633Z" fill="#FA9070"/>
<path d="M269.923 254.433L168.492 239.273C175.181 213.821 199.968 197.481 226.009 201.373C252.051 205.264 270.975 228.132 269.923 254.433Z" fill="#FA9070"/>
<path d="M332.895 223.877L269.028 315.731L298.317 336.08L362.184 244.225L332.895 223.877Z" fill="#FAF6ED" stroke="#C3C8C9" stroke-width="1.5" stroke-miterlimit="10"/>
<path d="M300.609 342.577L285.42 328.341C284.834 327.56 284.188 326.839 283.466 326.178L275.492 318.83L291.327 319.056C292.274 319.101 293.169 318.628 293.657 317.824C294.146 317.02 294.168 316.006 293.695 315.187C293.221 314.368 292.342 313.872 291.395 313.895L269.788 313.587L241.957 287.954L237.32 226.269C236.636 217.307 228.82 210.59 219.854 211.266C215.548 211.59 211.542 213.61 208.723 216.886C205.905 220.161 204.507 224.421 204.83 228.726L209.813 295.204C209.911 296.428 210.136 297.638 210.505 298.81C211.301 301.589 212.849 304.106 214.984 306.059L260.401 347.866C260.461 347.934 260.521 348.002 260.589 348.062L276.394 362.876C276.89 363.342 277.559 363.597 278.243 363.575C278.927 363.552 279.573 363.259 280.047 362.764C280.512 362.26 280.768 361.599 280.745 360.916C280.723 360.232 280.43 359.586 279.926 359.112L273.959 353.516C275.379 353.411 276.777 353.118 278.123 352.644L286.6 360.592C287.104 361.058 287.765 361.314 288.449 361.291C289.133 361.269 289.779 360.976 290.253 360.472C291.23 359.436 291.17 357.798 290.132 356.821L282.812 349.962C283.361 349.512 283.879 349.023 284.368 348.497C284.676 348.159 284.969 347.806 285.247 347.453L292.259 354.027C293.297 355.003 294.935 354.943 295.912 353.906C296.378 353.403 296.633 352.742 296.611 352.058C296.588 351.375 296.295 350.729 295.792 350.255L287.765 342.728C288.223 341.315 288.479 339.85 288.532 338.37L297.062 346.364C297.565 346.83 298.227 347.085 298.911 347.062C299.595 347.04 300.241 346.747 300.714 346.244C301.188 345.748 301.443 345.079 301.421 344.388C301.398 343.697 301.105 343.051 300.602 342.577H300.609Z" stroke="#102228" stroke-width="1.5" stroke-linecap="square" stroke-linejoin="round"/>
<path d="M323.584 128.516V166.83" stroke="#C3C8C9" stroke-width="1.5" stroke-linecap="square" stroke-linejoin="round"/>
<path d="M382.364 149.101H270.306V184.8H382.364V149.101Z" fill="#FAF6ED" stroke="#C3C8C9" stroke-width="1.5" stroke-miterlimit="10"/>
<path d="M487.252 403.609V128.516H323.584" stroke="#C3C8C9" stroke-width="1.5" stroke-linecap="square" stroke-linejoin="round"/>
<path d="M535.555 150.393H423.497V186.092H535.555V150.393Z" fill="#FAF6ED" stroke="#C3C8C9" stroke-width="1.5" stroke-miterlimit="10"/>
<path d="M151.868 175.687C151.868 175.687 162.826 175.169 167.846 157.379C167.846 157.379 176.008 175.289 186.958 174.771C186.958 174.771 169.049 182.929 170.364 195.302C170.364 195.302 163.795 180.232 151.875 175.687H151.868Z" stroke="#C3C8C9" stroke-width="1.5" stroke-linejoin="bevel"/>
<path d="M165.494 133.144C165.494 133.144 170.537 132.904 172.844 124.715C172.844 124.715 176.602 132.949 181.637 132.716C181.637 132.716 173.4 136.465 174.001 142.167C174.001 142.167 170.98 135.24 165.494 133.144Z" stroke="#C3C8C9" stroke-width="1.5" stroke-linejoin="bevel"/>
<path d="M536.321 208.63H424.263V244.329H536.321V208.63Z" fill="#FAF6ED" stroke="#C3C8C9" stroke-width="1.5" stroke-miterlimit="10"/>
<path d="M534.788 268.399H422.73V304.098H534.788V268.399Z" fill="#FAF6ED" stroke="#C3C8C9" stroke-width="1.5" stroke-miterlimit="10"/>
<path d="M536.321 326.636H424.263V362.335H536.321V326.636Z" fill="#FAF6ED" stroke="#C3C8C9" stroke-width="1.5" stroke-miterlimit="10"/>
<path d="M534.788 386.405H422.73V422.105H534.788V386.405Z" fill="#FAF6ED" stroke="#C3C8C9" stroke-width="1.5" stroke-miterlimit="10"/>
<path d="M233.127 150.355C228.67 150.355 224.506 152.564 222.011 156.253C219.516 159.941 219.02 164.629 220.681 168.761C220.493 168.761 220.297 168.738 220.095 168.738C214.383 168.738 209.746 173.374 209.746 179.083C209.746 184.793 214.383 189.428 220.095 189.428C225.806 189.428 230.443 184.793 230.443 179.083C230.443 178.332 230.361 177.581 230.195 176.844C235.216 177.971 240.447 176.123 243.641 172.096C246.843 168.062 247.451 162.556 245.204 157.928C242.965 153.293 238.267 150.355 233.119 150.355H233.127Z" fill="#102228"/>
<path d="M332.656 417.71C333.606 417.71 334.377 416.94 334.377 415.99C334.377 415.04 333.606 414.269 332.656 414.269C331.705 414.269 330.935 415.04 330.935 415.99C330.935 416.94 331.705 417.71 332.656 417.71Z" fill="#102228"/>
<path d="M322.916 422.864C323.866 422.864 324.637 422.093 324.637 421.143C324.637 420.193 323.866 419.423 322.916 419.423C321.965 419.423 321.194 420.193 321.194 421.143C321.194 422.093 321.965 422.864 322.916 422.864Z" fill="#102228"/>
<path d="M313.183 428.025C314.133 428.025 314.904 427.255 314.904 426.304C314.904 425.354 314.133 424.584 313.183 424.584C312.232 424.584 311.462 425.354 311.462 426.304C311.462 427.255 312.232 428.025 313.183 428.025Z" fill="#102228"/>
<path d="M333.813 466.962C334.764 466.962 335.534 466.192 335.534 465.242C335.534 464.291 334.764 463.521 333.813 463.521C332.863 463.521 332.092 464.291 332.092 465.242C332.092 466.192 332.863 466.962 333.813 466.962Z" fill="#102228"/>
<path d="M328.657 457.226C329.608 457.226 330.379 456.456 330.379 455.505C330.379 454.555 329.608 453.785 328.657 453.785C327.707 453.785 326.936 454.555 326.936 455.505C326.936 456.456 327.707 457.226 328.657 457.226Z" fill="#102228"/>
<path d="M323.494 447.49C324.445 447.49 325.215 446.719 325.215 445.769C325.215 444.819 324.445 444.049 323.494 444.049C322.544 444.049 321.773 444.819 321.773 445.769C321.773 446.719 322.544 447.49 323.494 447.49Z" fill="#102228"/>
<path d="M318.339 437.753C319.289 437.753 320.06 436.983 320.06 436.033C320.06 435.083 319.289 434.313 318.339 434.313C317.388 434.313 316.617 435.083 316.617 436.033C316.617 436.983 317.388 437.753 318.339 437.753Z" fill="#102228"/>
<path d="M308.02 418.288C308.97 418.288 309.741 417.518 309.741 416.568C309.741 415.618 308.97 414.848 308.02 414.848C307.069 414.848 306.298 415.618 306.298 416.568C306.298 417.518 307.069 418.288 308.02 418.288Z" fill="#102228"/>
<path d="M302.864 408.552C303.814 408.552 304.585 407.782 304.585 406.832C304.585 405.882 303.814 405.112 302.864 405.112C301.913 405.112 301.143 405.882 301.143 406.832C301.143 407.782 301.913 408.552 302.864 408.552Z" fill="#102228"/>
<path d="M297.701 398.816C298.651 398.816 299.422 398.046 299.422 397.096C299.422 396.146 298.651 395.375 297.701 395.375C296.75 395.375 295.98 396.146 295.98 397.096C295.98 398.046 296.75 398.816 297.701 398.816Z" fill="#102228"/>
<path d="M292.545 389.08C293.495 389.08 294.266 388.31 294.266 387.36C294.266 386.409 293.495 385.639 292.545 385.639C291.594 385.639 290.824 386.409 290.824 387.36C290.824 388.31 291.594 389.08 292.545 389.08Z" fill="#102228"/>
<path d="M336.105 459.517C337.056 459.517 337.826 458.747 337.826 457.797C337.826 456.847 337.056 456.076 336.105 456.076C335.155 456.076 334.384 456.847 334.384 457.797C334.384 458.747 335.155 459.517 336.105 459.517Z" fill="#102228"/>
<path d="M330.942 449.781C331.893 449.781 332.663 449.011 332.663 448.061C332.663 447.11 331.893 446.34 330.942 446.34C329.992 446.34 329.221 447.11 329.221 448.061C329.221 449.011 329.992 449.781 330.942 449.781Z" fill="#102228"/>
<path d="M325.786 440.045C326.737 440.045 327.508 439.275 327.508 438.324C327.508 437.374 326.737 436.604 325.786 436.604C324.836 436.604 324.065 437.374 324.065 438.324C324.065 439.275 324.836 440.045 325.786 440.045Z" fill="#102228"/>
<path d="M320.631 430.309C321.581 430.309 322.352 429.538 322.352 428.588C322.352 427.638 321.581 426.868 320.631 426.868C319.68 426.868 318.91 427.638 318.91 428.588C318.91 429.538 319.68 430.309 320.631 430.309Z" fill="#102228"/>
<path d="M315.468 420.572C316.418 420.572 317.189 419.802 317.189 418.852C317.189 417.902 316.418 417.132 315.468 417.132C314.517 417.132 313.746 417.902 313.746 418.852C313.746 419.802 314.517 420.572 315.468 420.572Z" fill="#102228"/>
<path d="M310.312 410.844C311.262 410.844 312.033 410.073 312.033 409.123C312.033 408.173 311.262 407.403 310.312 407.403C309.361 407.403 308.591 408.173 308.591 409.123C308.591 410.073 309.361 410.844 310.312 410.844Z" fill="#102228"/>
<path d="M305.156 401.107C306.107 401.107 306.877 400.337 306.877 399.387C306.877 398.437 306.107 397.667 305.156 397.667C304.206 397.667 303.435 398.437 303.435 399.387C303.435 400.337 304.206 401.107 305.156 401.107Z" fill="#102228"/>
<path d="M299.993 391.371C300.943 391.371 301.714 390.601 301.714 389.651C301.714 388.701 300.943 387.93 299.993 387.93C299.042 387.93 298.272 388.701 298.272 389.651C298.272 390.601 299.042 391.371 299.993 391.371Z" fill="#102228"/>
<path d="M343.546 461.801C344.496 461.801 345.267 461.031 345.267 460.08C345.267 459.13 344.496 458.36 343.546 458.36C342.595 458.36 341.825 459.13 341.825 460.08C341.825 461.031 342.595 461.801 343.546 461.801Z" fill="#102228"/>
<path d="M338.398 452.072C339.348 452.072 340.119 451.302 340.119 450.352C340.119 449.402 339.348 448.631 338.398 448.631C337.447 448.631 336.677 449.402 336.677 450.352C336.677 451.302 337.447 452.072 338.398 452.072Z" fill="#102228"/>
<path d="M333.234 442.336C334.185 442.336 334.956 441.566 334.956 440.616C334.956 439.666 334.185 438.895 333.234 438.895C332.284 438.895 331.513 439.666 331.513 440.616C331.513 441.566 332.284 442.336 333.234 442.336Z" fill="#102228"/>
<path d="M328.079 432.6C329.029 432.6 329.8 431.83 329.8 430.879C329.8 429.929 329.029 429.159 328.079 429.159C327.128 429.159 326.358 429.929 326.358 430.879C326.358 431.83 327.128 432.6 328.079 432.6Z" fill="#102228"/>
<path d="M317.76 413.127C318.71 413.127 319.481 412.357 319.481 411.407C319.481 410.457 318.71 409.687 317.76 409.687C316.809 409.687 316.039 410.457 316.039 411.407C316.039 412.357 316.809 413.127 317.76 413.127Z" fill="#102228"/>
<path d="M312.604 403.399C313.555 403.399 314.325 402.628 314.325 401.678C314.325 400.728 313.555 399.958 312.604 399.958C311.654 399.958 310.883 400.728 310.883 401.678C310.883 402.628 311.654 403.399 312.604 403.399Z" fill="#102228"/>
<path d="M307.441 393.663C308.391 393.663 309.162 392.892 309.162 391.942C309.162 390.992 308.391 390.222 307.441 390.222C306.49 390.222 305.72 390.992 305.72 391.942C305.72 392.892 306.49 393.663 307.441 393.663Z" fill="#102228"/>
<path d="M302.285 383.926C303.236 383.926 304.006 383.156 304.006 382.206C304.006 381.256 303.236 380.486 302.285 380.486C301.335 380.486 300.564 381.256 300.564 382.206C300.564 383.156 301.335 383.926 302.285 383.926Z" fill="#102228"/>
<path d="M345.838 454.363C346.789 454.363 347.559 453.593 347.559 452.643C347.559 451.693 346.789 450.923 345.838 450.923C344.888 450.923 344.117 451.693 344.117 452.643C344.117 453.593 344.888 454.363 345.838 454.363Z" fill="#102228"/>
<path d="M340.682 444.627C341.633 444.627 342.403 443.857 342.403 442.907C342.403 441.957 341.633 441.187 340.682 441.187C339.732 441.187 338.961 441.957 338.961 442.907C338.961 443.857 339.732 444.627 340.682 444.627Z" fill="#102228"/>
<path d="M335.527 434.891C336.477 434.891 337.248 434.121 337.248 433.171C337.248 432.221 336.477 431.45 335.527 431.45C334.576 431.45 333.806 432.221 333.806 433.171C333.806 434.121 334.576 434.891 335.527 434.891Z" fill="#102228"/>
<path d="M330.371 425.155C331.321 425.155 332.092 424.385 332.092 423.435C332.092 422.484 331.321 421.714 330.371 421.714C329.42 421.714 328.65 422.484 328.65 423.435C328.65 424.385 329.42 425.155 330.371 425.155Z" fill="#102228"/>
<path d="M325.208 415.419C326.158 415.419 326.929 414.649 326.929 413.698C326.929 412.748 326.158 411.978 325.208 411.978C324.257 411.978 323.487 412.748 323.487 413.698C323.487 414.649 324.257 415.419 325.208 415.419Z" fill="#102228"/>
<path d="M320.052 405.69C321.003 405.69 321.773 404.92 321.773 403.97C321.773 403.019 321.003 402.249 320.052 402.249C319.102 402.249 318.331 403.019 318.331 403.97C318.331 404.92 319.102 405.69 320.052 405.69Z" fill="#102228"/>
<path d="M314.889 395.954C315.839 395.954 316.61 395.184 316.61 394.233C316.61 393.283 315.839 392.513 314.889 392.513C313.938 392.513 313.168 393.283 313.168 394.233C313.168 395.184 313.938 395.954 314.889 395.954Z" fill="#102228"/>
<path d="M309.733 386.218C310.684 386.218 311.454 385.447 311.454 384.497C311.454 383.547 310.684 382.777 309.733 382.777C308.783 382.777 308.012 383.547 308.012 384.497C308.012 385.447 308.783 386.218 309.733 386.218Z" fill="#102228"/>
<path d="M353.286 456.647C354.237 456.647 355.007 455.877 355.007 454.927C355.007 453.977 354.237 453.207 353.286 453.207C352.336 453.207 351.565 453.977 351.565 454.927C351.565 455.877 352.336 456.647 353.286 456.647Z" fill="#102228"/>
<path d="M348.13 446.911C349.081 446.911 349.851 446.141 349.851 445.191C349.851 444.241 349.081 443.47 348.13 443.47C347.18 443.47 346.409 444.241 346.409 445.191C346.409 446.141 347.18 446.911 348.13 446.911Z" fill="#102228"/>
<path d="M327.5 407.974C328.451 407.974 329.221 407.204 329.221 406.253C329.221 405.303 328.451 404.533 327.5 404.533C326.55 404.533 325.779 405.303 325.779 406.253C325.779 407.204 326.55 407.974 327.5 407.974Z" fill="#102228"/>
<path d="M322.344 398.238C323.295 398.238 324.065 397.467 324.065 396.517C324.065 395.567 323.295 394.797 322.344 394.797C321.394 394.797 320.623 395.567 320.623 396.517C320.623 397.467 321.394 398.238 322.344 398.238Z" fill="#102228"/>
<path d="M317.181 388.509C318.132 388.509 318.902 387.739 318.902 386.789C318.902 385.838 318.132 385.068 317.181 385.068C316.231 385.068 315.46 385.838 315.46 386.789C315.46 387.739 316.231 388.509 317.181 388.509Z" fill="#102228"/>
<path d="M312.025 378.773C312.976 378.773 313.746 378.003 313.746 377.052C313.746 376.102 312.976 375.332 312.025 375.332C311.075 375.332 310.304 376.102 310.304 377.052C310.304 378.003 311.075 378.773 312.025 378.773Z" fill="#102228"/>
<path d="M355.578 449.202C356.529 449.202 357.299 448.432 357.299 447.482C357.299 446.532 356.529 445.762 355.578 445.762C354.628 445.762 353.857 446.532 353.857 447.482C353.857 448.432 354.628 449.202 355.578 449.202Z" fill="#102228"/>
<path d="M334.948 410.265C335.899 410.265 336.669 409.495 336.669 408.545C336.669 407.595 335.899 406.824 334.948 406.824C333.997 406.824 333.227 407.595 333.227 408.545C333.227 409.495 333.997 410.265 334.948 410.265Z" fill="#102228"/>
<path d="M329.792 400.529C330.743 400.529 331.513 399.759 331.513 398.809C331.513 397.858 330.743 397.088 329.792 397.088C328.842 397.088 328.071 397.858 328.071 398.809C328.071 399.759 328.842 400.529 329.792 400.529Z" fill="#102228"/>
<path d="M324.629 390.793C325.58 390.793 326.35 390.023 326.35 389.072C326.35 388.122 325.58 387.352 324.629 387.352C323.679 387.352 322.908 388.122 322.908 389.072C322.908 390.023 323.679 390.793 324.629 390.793Z" fill="#102228"/>
<path d="M316.625 469.824C317.575 469.824 318.346 469.054 318.346 468.104C318.346 467.154 317.575 466.384 316.625 466.384C315.674 466.384 314.904 467.154 314.904 468.104C314.904 469.054 315.674 469.824 316.625 469.824Z" fill="#102228"/>
<path d="M311.469 460.096C312.42 460.096 313.19 459.325 313.19 458.375C313.19 457.425 312.42 456.655 311.469 456.655C310.519 456.655 309.748 457.425 309.748 458.375C309.748 459.325 310.519 460.096 311.469 460.096Z" fill="#102228"/>
<path d="M306.306 450.359C307.257 450.359 308.027 449.589 308.027 448.639C308.027 447.689 307.257 446.919 306.306 446.919C305.355 446.919 304.585 447.689 304.585 448.639C304.585 449.589 305.355 450.359 306.306 450.359Z" fill="#102228"/>
<path d="M324.073 472.116C325.023 472.116 325.794 471.345 325.794 470.395C325.794 469.445 325.023 468.675 324.073 468.675C323.122 468.675 322.352 469.445 322.352 470.395C322.352 471.345 323.122 472.116 324.073 472.116Z" fill="#102228"/>
<path d="M318.917 462.387C319.868 462.387 320.638 461.617 320.638 460.666C320.638 459.716 319.868 458.946 318.917 458.946C317.967 458.946 317.196 459.716 317.196 460.666C317.196 461.617 317.967 462.387 318.917 462.387Z" fill="#102228"/>
<path d="M313.754 452.651C314.705 452.651 315.475 451.88 315.475 450.93C315.475 449.98 314.705 449.21 313.754 449.21C312.803 449.21 312.033 449.98 312.033 450.93C312.033 451.88 312.803 452.651 313.754 452.651Z" fill="#102228"/>
<path d="M308.598 442.914C309.549 442.914 310.319 442.144 310.319 441.194C310.319 440.244 309.549 439.474 308.598 439.474C307.648 439.474 306.877 440.244 306.877 441.194C306.877 442.144 307.648 442.914 308.598 442.914Z" fill="#102228"/>
<path d="M298.279 423.442C299.23 423.442 300 422.672 300 421.722C300 420.772 299.23 420.001 298.279 420.001C297.329 420.001 296.558 420.772 296.558 421.722C296.558 422.672 297.329 423.442 298.279 423.442Z" fill="#102228"/>
<path d="M287.96 403.977C288.911 403.977 289.681 403.207 289.681 402.257C289.681 401.307 288.911 400.536 287.96 400.536C287.01 400.536 286.239 401.307 286.239 402.257C286.239 403.207 287.01 403.977 287.96 403.977Z" fill="#102228"/>
<path d="M326.365 464.671C327.316 464.671 328.086 463.9 328.086 462.95C328.086 462 327.316 461.23 326.365 461.23C325.415 461.23 324.644 462 324.644 462.95C324.644 463.9 325.415 464.671 326.365 464.671Z" fill="#102228"/>
<path d="M321.209 454.935C322.16 454.935 322.931 454.164 322.931 453.214C322.931 452.264 322.16 451.494 321.209 451.494C320.259 451.494 319.488 452.264 319.488 453.214C319.488 454.164 320.259 454.935 321.209 454.935Z" fill="#102228"/>
<path d="M316.046 445.206C316.997 445.206 317.767 444.436 317.767 443.485C317.767 442.535 316.997 441.765 316.046 441.765C315.096 441.765 314.325 442.535 314.325 443.485C314.325 444.436 315.096 445.206 316.046 445.206Z" fill="#102228"/>
<path d="M310.891 435.469C311.841 435.469 312.612 434.699 312.612 433.749C312.612 432.799 311.841 432.029 310.891 432.029C309.94 432.029 309.169 432.799 309.169 433.749C309.169 434.699 309.94 435.469 310.891 435.469Z" fill="#102228"/>
<path d="M305.727 425.733C306.678 425.733 307.448 424.963 307.448 424.013C307.448 423.063 306.678 422.293 305.727 422.293C304.777 422.293 304.006 423.063 304.006 424.013C304.006 424.963 304.777 425.733 305.727 425.733Z" fill="#102228"/>
<path d="M300.572 415.997C301.522 415.997 302.293 415.227 302.293 414.277C302.293 413.327 301.522 412.556 300.572 412.556C299.621 412.556 298.851 413.327 298.851 414.277C298.851 415.227 299.621 415.997 300.572 415.997Z" fill="#102228"/>
<path d="M295.416 406.268C296.366 406.268 297.137 405.498 297.137 404.548C297.137 403.598 296.366 402.828 295.416 402.828C294.465 402.828 293.695 403.598 293.695 404.548C293.695 405.498 294.465 406.268 295.416 406.268Z" fill="#102228"/>
<path d="M290.253 396.532C291.203 396.532 291.974 395.762 291.974 394.812C291.974 393.862 291.203 393.092 290.253 393.092C289.302 393.092 288.532 393.862 288.532 394.812C288.532 395.762 289.302 396.532 290.253 396.532Z" fill="#102228"/>
</svg>
