<svg width="533" height="532" viewBox="0 0 533 532" fill="none" xmlns="http://www.w3.org/2000/svg">
<path d="M278.664 274.206H266.633V486.048H278.664V274.206Z" stroke="#C3C8C9" stroke-width="1.5" stroke-linecap="square" stroke-linejoin="round"/>
<path d="M264.251 73.5424L251.348 96.5381C250.563 97.489 249.871 98.5131 249.272 99.5971L242.651 111.634L238.113 92.0892C237.854 90.9454 237.002 90.0211 235.877 89.6753C234.753 89.3295 233.529 89.6154 232.677 90.4201C231.818 91.2247 231.459 92.4284 231.739 93.5722L237.927 120.232L214.837 162.233L140.323 186.685C129.504 190.25 123.621 201.901 127.181 212.72C128.892 217.921 132.591 222.23 137.482 224.697C142.366 227.164 148.036 227.596 153.239 225.887L233.542 199.54C235.019 199.054 236.436 198.403 237.774 197.598C240.961 195.776 243.576 193.109 245.34 189.891L283.022 121.356C283.082 121.263 283.149 121.17 283.209 121.063L296.637 97.1299C297.522 95.5539 296.956 93.5655 295.386 92.6811C294.627 92.2555 293.736 92.1491 292.897 92.3818C292.059 92.6146 291.353 93.1732 290.927 93.9313L285.857 102.969C285.298 101.253 284.5 99.617 283.495 98.1141L290.701 85.2663C291.586 83.6903 291.021 81.6953 289.444 80.8175C287.867 79.933 285.877 80.4983 284.992 82.0677L278.75 93.1665C278.025 92.6279 277.266 92.1424 276.475 91.7102C275.962 91.4309 275.443 91.1782 274.918 90.9454L280.873 80.3254C281.299 79.5673 281.405 78.6762 281.172 77.8383C280.94 77.0004 280.381 76.2955 279.622 75.8699C278.045 74.9854 276.055 75.5507 275.17 77.1201L268.343 89.2829C266.467 89.1433 264.584 89.2696 262.74 89.6487L269.98 76.7344C270.406 75.9763 270.512 75.0852 270.28 74.2473C270.047 73.4094 269.488 72.7045 268.729 72.2789C267.971 71.8533 267.079 71.7469 266.247 71.9796C265.409 72.2124 264.703 72.771 264.278 73.5224L264.251 73.5424Z" stroke="#102228" stroke-width="1.5" stroke-linecap="square" stroke-linejoin="round"/>
<path d="M205.534 341.73H196.278V486.042H205.534V341.73Z" stroke="#FEFDFA" stroke-width="1.5" stroke-miterlimit="7.3"/>
<path d="M165.736 333.404H67.6132V215.926H153.698" stroke="#FEFDFA" stroke-width="1.5" stroke-miterlimit="7.3"/>
<path d="M333.002 387.515L358.334 404.579L367.644 390.781L366.02 382.428L373.732 380.925L408.148 329.926L357.849 350.694L333.002 387.515Z" fill="#102228"/>
<path d="M217.572 449.966V480.489H234.227L240.249 474.484L245.799 480.03H307.357L262.002 449.966H217.572Z" fill="#102228"/>
<path d="M264.411 273.082L368.608 340.021L331.119 398.302L168.604 293.897C178.545 278.442 194.229 267.563 212.195 263.659C230.162 259.756 248.946 263.147 264.411 273.082Z" fill="#FEFDFA"/>
<path d="M147.217 173.372C156.93 173.372 164.804 165.503 164.804 155.796C164.804 146.089 156.93 138.22 147.217 138.22C137.504 138.22 129.63 146.089 129.63 155.796C129.63 165.503 137.504 173.372 147.217 173.372Z" fill="#FA9070"/>
<path d="M212.208 238.123H82.2324C85.8323 204.966 113.846 179.843 147.217 179.843C180.588 179.843 208.602 204.966 212.202 238.123H212.208Z" fill="#FA9070"/>
<path d="M168.511 125.266C168.511 117.658 164.451 110.629 157.851 106.832C151.256 103.035 143.131 103.042 136.544 106.859C125.139 98.4 109.621 98.0941 97.8897 106.101C86.1583 114.107 80.8017 128.664 84.5414 142.363C88.281 156.056 100.298 165.878 114.472 166.822C128.645 167.766 141.861 159.62 147.383 146.546C159.075 146.46 168.511 136.957 168.511 125.273V125.266Z" fill="#102228"/>
<path d="M278.664 330.631V454.574H209.241V330.631H119.915C107.512 330.631 96.0531 324.021 89.8514 313.288C83.6497 302.555 83.6497 289.328 89.8514 278.595C96.0531 267.862 107.512 261.252 119.915 261.252H209.241C247.582 261.252 278.657 292.314 278.664 330.631Z" fill="#ADE28A"/>
<path d="M99.6198 341.73V468.466H106.494V341.73" stroke="#C3C8C9" stroke-width="1.5" stroke-miterlimit="7.3"/>
<path d="M67.6132 333.404V484.193H76.8691V341.73H156.473" stroke="#FEFDFA" stroke-width="1.5" stroke-miterlimit="7.3"/>
<path d="M165.882 341.73H205.534V333.404H165.736" stroke="#FEFDFA" stroke-width="1.46" stroke-miterlimit="7.3"/>
<path d="M165.736 333.404V486.042H156.473V340.806" stroke="#FEFDFA" stroke-width="1.5" stroke-miterlimit="7.3"/>
<path d="M256.446 238.123H376.78V249.229H256.446C253.378 249.229 250.896 246.742 250.896 243.683C250.896 242.206 251.475 240.796 252.52 239.752C253.564 238.708 254.975 238.123 256.452 238.123H256.446Z" fill="#FAF6ED" stroke="#C3C8C9" stroke-width="1.5" stroke-linecap="square" stroke-linejoin="round"/>
<path d="M314.024 146.539H365.514C368.502 146.539 371.37 147.723 373.479 149.838C375.589 151.946 376.78 154.812 376.78 157.798V238.123H299.951V160.604C299.957 152.844 306.252 146.546 314.024 146.539Z" fill="#FAF6ED" stroke="#C3C8C9" stroke-width="1.5" stroke-linecap="square" stroke-linejoin="round"/>
<path d="M483.24 255.699H250.896V274.199H483.24V255.699Z" stroke="#FEFDFA" stroke-width="1.5" stroke-linecap="square" stroke-linejoin="round"/>
<path d="M470.271 274.206H458.24V486.048H470.271V274.206Z" stroke="#FEFDFA" stroke-width="1.5" stroke-linecap="square" stroke-linejoin="round"/>
<path d="M324.019 274.206H311.988V486.048H324.019V274.206Z" stroke="#FEFDFA" stroke-width="1.5" stroke-linecap="square" stroke-linejoin="round"/>
<path d="M439.728 274.206H427.698V486.048H439.728V274.206Z" stroke="#FEFDFA" stroke-width="1.5" stroke-linecap="square" stroke-linejoin="round"/>
<path d="M317.385 146.539H365.794C368.708 146.539 371.503 147.697 373.566 149.758C375.629 151.82 376.786 154.613 376.786 157.525V238.11H303.657V160.265C303.657 152.691 309.805 146.546 317.385 146.546V146.539Z" fill="#FAF6ED" stroke="#C3C8C9" stroke-width="1.5" stroke-linecap="square" stroke-linejoin="round"/>
<path d="M341.606 202.965C345.185 202.965 348.087 198.204 348.087 192.331C348.087 186.459 345.185 181.698 341.606 181.698C338.026 181.698 335.125 186.459 335.125 192.331C335.125 198.204 338.026 202.965 341.606 202.965Z" fill="#FAF6ED" stroke="#C3C8C9" stroke-width="1.5" stroke-linecap="square" stroke-linejoin="round"/>
<path d="M401.78 255.699H250.896V274.199H401.78V255.699Z" stroke="#FEFDFA" stroke-width="1.5" stroke-linecap="square" stroke-linejoin="round"/>
<path d="M169.435 83.2713C169.435 83.2713 183.316 82.613 189.684 60.0695C189.684 60.0695 200.025 82.7593 213.905 82.1076C213.905 82.1076 191.208 92.4417 192.871 108.122C192.871 108.122 184.554 89.0302 169.435 83.2647V83.2713Z" stroke="#C3C8C9" stroke-width="1.5" stroke-linejoin="bevel"/>
<path d="M419.899 174.084C421.174 174.084 422.208 173.051 422.208 171.776C422.208 170.502 421.174 169.469 419.899 169.469C418.624 169.469 417.59 170.502 417.59 171.776C417.59 173.051 418.624 174.084 419.899 174.084Z" fill="#102228"/>
<path d="M434.704 174.203C435.98 174.203 437.013 173.17 437.013 171.896C437.013 170.621 435.98 169.588 434.704 169.588C433.429 169.588 432.395 170.621 432.395 171.896C432.395 173.17 433.429 174.203 434.704 174.203Z" fill="#102228"/>
<path d="M449.636 159.52C450.912 159.52 451.945 158.487 451.945 157.213C451.945 155.938 450.912 154.905 449.636 154.905C448.361 154.905 447.327 155.938 447.327 157.213C447.327 158.487 448.361 159.52 449.636 159.52Z" fill="#102228"/>
<path d="M449.397 189.126C450.672 189.126 451.706 188.093 451.706 186.818C451.706 185.544 450.672 184.511 449.397 184.511C448.122 184.511 447.088 185.544 447.088 186.818C447.088 188.093 448.122 189.126 449.397 189.126Z" fill="#102228"/>
<path d="M449.277 203.922C450.552 203.922 451.586 202.889 451.586 201.615C451.586 200.34 450.552 199.307 449.277 199.307C448.002 199.307 446.968 200.34 446.968 201.615C446.968 202.889 448.002 203.922 449.277 203.922Z" fill="#102228"/>
<path d="M442.417 137.263C443.692 137.263 444.726 136.23 444.726 134.955C444.726 133.681 443.692 132.648 442.417 132.648C441.141 132.648 440.108 133.681 440.108 134.955C440.108 136.23 441.141 137.263 442.417 137.263Z" fill="#102228"/>
<path d="M442.297 152.059C443.572 152.059 444.606 151.026 444.606 149.751C444.606 148.477 443.572 147.444 442.297 147.444C441.022 147.444 439.988 148.477 439.988 149.751C439.988 151.026 441.022 152.059 442.297 152.059Z" fill="#102228"/>
<path d="M442.17 166.862C443.446 166.862 444.479 165.829 444.479 164.554C444.479 163.28 443.446 162.247 442.17 162.247C440.895 162.247 439.861 163.28 439.861 164.554C439.861 165.829 440.895 166.862 442.17 166.862Z" fill="#102228"/>
<path d="M442.051 181.665C443.326 181.665 444.36 180.632 444.36 179.357C444.36 178.083 443.326 177.05 442.051 177.05C440.775 177.05 439.742 178.083 439.742 179.357C439.742 180.632 440.775 181.665 442.051 181.665Z" fill="#102228"/>
<path d="M441.931 196.461C443.206 196.461 444.24 195.428 444.24 194.153C444.24 192.879 443.206 191.846 441.931 191.846C440.656 191.846 439.622 192.879 439.622 194.153C439.622 195.428 440.656 196.461 441.931 196.461Z" fill="#102228"/>
<path d="M441.811 211.264C443.086 211.264 444.12 210.231 444.12 208.956C444.12 207.682 443.086 206.649 441.811 206.649C440.536 206.649 439.502 207.682 439.502 208.956C439.502 210.231 440.536 211.264 441.811 211.264Z" fill="#102228"/>
<path d="M441.685 226.067C442.96 226.067 443.994 225.034 443.994 223.759C443.994 222.485 442.96 221.452 441.685 221.452C440.409 221.452 439.376 222.485 439.376 223.759C439.376 225.034 440.409 226.067 441.685 226.067Z" fill="#102228"/>
<path d="M435.07 129.801C436.346 129.801 437.379 128.768 437.379 127.494C437.379 126.219 436.346 125.186 435.07 125.186C433.795 125.186 432.761 126.219 432.761 127.494C432.761 128.768 433.795 129.801 435.07 129.801Z" fill="#102228"/>
<path d="M434.951 144.598C436.226 144.598 437.26 143.564 437.26 142.29C437.26 141.016 436.226 139.982 434.951 139.982C433.675 139.982 432.642 141.016 432.642 142.29C432.642 143.564 433.675 144.598 434.951 144.598Z" fill="#102228"/>
<path d="M434.831 159.4C436.106 159.4 437.14 158.367 437.14 157.093C437.14 155.819 436.106 154.785 434.831 154.785C433.556 154.785 432.522 155.819 432.522 157.093C432.522 158.367 433.556 159.4 434.831 159.4Z" fill="#102228"/>
<path d="M434.585 189C435.86 189 436.894 187.967 436.894 186.692C436.894 185.418 435.86 184.385 434.585 184.385C433.309 184.385 432.276 185.418 432.276 186.692C432.276 187.967 433.309 189 434.585 189Z" fill="#102228"/>
<path d="M434.465 203.803C435.74 203.803 436.774 202.769 436.774 201.495C436.774 200.221 435.74 199.187 434.465 199.187C433.19 199.187 432.156 200.221 432.156 201.495C432.156 202.769 433.19 203.803 434.465 203.803Z" fill="#102228"/>
<path d="M434.345 218.605C435.62 218.605 436.654 217.572 436.654 216.298C436.654 215.023 435.62 213.99 434.345 213.99C433.07 213.99 432.036 215.023 432.036 216.298C432.036 217.572 433.07 218.605 434.345 218.605Z" fill="#102228"/>
<path d="M427.604 137.136C428.88 137.136 429.913 136.103 429.913 134.829C429.913 133.554 428.88 132.521 427.604 132.521C426.329 132.521 425.295 133.554 425.295 134.829C425.295 136.103 426.329 137.136 427.604 137.136Z" fill="#102228"/>
<path d="M427.485 151.939C428.76 151.939 429.794 150.906 429.794 149.632C429.794 148.357 428.76 147.324 427.485 147.324C426.209 147.324 425.176 148.357 425.176 149.632C425.176 150.906 426.209 151.939 427.485 151.939Z" fill="#102228"/>
<path d="M427.365 166.742C428.64 166.742 429.674 165.709 429.674 164.435C429.674 163.16 428.64 162.127 427.365 162.127C426.09 162.127 425.056 163.16 425.056 164.435C425.056 165.709 426.09 166.742 427.365 166.742Z" fill="#102228"/>
<path d="M427.238 181.538C428.514 181.538 429.547 180.505 429.547 179.231C429.547 177.956 428.514 176.923 427.238 176.923C425.963 176.923 424.929 177.956 424.929 179.231C424.929 180.505 425.963 181.538 427.238 181.538Z" fill="#102228"/>
<path d="M427.119 196.341C428.394 196.341 429.428 195.308 429.428 194.034C429.428 192.759 428.394 191.726 427.119 191.726C425.843 191.726 424.81 192.759 424.81 194.034C424.81 195.308 425.843 196.341 427.119 196.341Z" fill="#102228"/>
<path d="M426.999 211.144C428.274 211.144 429.308 210.111 429.308 208.837C429.308 207.562 428.274 206.529 426.999 206.529C425.724 206.529 424.69 207.562 424.69 208.837C424.69 210.111 425.724 211.144 426.999 211.144Z" fill="#102228"/>
<path d="M426.879 225.94C428.154 225.94 429.188 224.907 429.188 223.633C429.188 222.358 428.154 221.325 426.879 221.325C425.604 221.325 424.57 222.358 424.57 223.633C424.57 224.907 425.604 225.94 426.879 225.94Z" fill="#102228"/>
<path d="M420.258 129.675C421.533 129.675 422.567 128.642 422.567 127.367C422.567 126.093 421.533 125.06 420.258 125.06C418.983 125.06 417.949 126.093 417.949 127.367C417.949 128.642 418.983 129.675 420.258 129.675Z" fill="#102228"/>
<path d="M420.138 144.478C421.414 144.478 422.447 143.445 422.447 142.17C422.447 140.896 421.414 139.863 420.138 139.863C418.863 139.863 417.829 140.896 417.829 142.17C417.829 143.445 418.863 144.478 420.138 144.478Z" fill="#102228"/>
<path d="M420.019 159.281C421.294 159.281 422.328 158.248 422.328 156.973C422.328 155.699 421.294 154.666 420.019 154.666C418.743 154.666 417.71 155.699 417.71 156.973C417.71 158.248 418.743 159.281 420.019 159.281Z" fill="#102228"/>
<path d="M419.772 188.88C421.048 188.88 422.081 187.847 422.081 186.572C422.081 185.298 421.048 184.265 419.772 184.265C418.497 184.265 417.463 185.298 417.463 186.572C417.463 187.847 418.497 188.88 419.772 188.88Z" fill="#102228"/>
<path d="M419.653 203.683C420.928 203.683 421.962 202.65 421.962 201.375C421.962 200.101 420.928 199.068 419.653 199.068C418.377 199.068 417.344 200.101 417.344 201.375C417.344 202.65 418.377 203.683 419.653 203.683Z" fill="#102228"/>
<path d="M419.533 218.479C420.808 218.479 421.842 217.446 421.842 216.172C421.842 214.897 420.808 213.864 419.533 213.864C418.258 213.864 417.224 214.897 417.224 216.172C417.224 217.446 418.258 218.479 419.533 218.479Z" fill="#102228"/>
<path d="M419.413 233.282C420.688 233.282 421.722 232.249 421.722 230.974C421.722 229.7 420.688 228.667 419.413 228.667C418.138 228.667 417.104 229.7 417.104 230.974C417.104 232.249 418.138 233.282 419.413 233.282Z" fill="#102228"/>
<path d="M412.919 122.214C414.194 122.214 415.228 121.181 415.228 119.906C415.228 118.632 414.194 117.599 412.919 117.599C411.643 117.599 410.61 118.632 410.61 119.906C410.61 121.181 411.643 122.214 412.919 122.214Z" fill="#102228"/>
<path d="M412.672 151.82C413.948 151.82 414.981 150.786 414.981 149.512C414.981 148.238 413.948 147.204 412.672 147.204C411.397 147.204 410.363 148.238 410.363 149.512C410.363 150.786 411.397 151.82 412.672 151.82Z" fill="#102228"/>
<path d="M412.433 181.419C413.708 181.419 414.742 180.386 414.742 179.111C414.742 177.837 413.708 176.804 412.433 176.804C411.158 176.804 410.124 177.837 410.124 179.111C410.124 180.386 411.158 181.419 412.433 181.419Z" fill="#102228"/>
<path d="M412.187 211.018C413.462 211.018 414.496 209.985 414.496 208.71C414.496 207.436 413.462 206.403 412.187 206.403C410.911 206.403 409.878 207.436 409.878 208.71C409.878 209.985 410.911 211.018 412.187 211.018Z" fill="#102228"/>
<path d="M260.564 314.445L237.248 302.063C236.277 301.298 235.239 300.633 234.147 300.061L221.957 293.711L241.387 288.743C243.111 288.271 244.135 286.509 243.696 284.78C243.257 283.051 241.507 281.993 239.77 282.406L213.24 289.202L170.706 267.064L144.629 193.143C142.805 187.982 139.006 183.759 134.068 181.399C129.131 179.038 123.455 178.732 118.291 180.561C107.538 184.358 101.902 196.142 105.695 206.888L133.842 286.535C134.361 288.005 135.047 289.408 135.878 290.718C137.775 293.857 140.503 296.41 143.764 298.1L213.167 334.222C213.26 334.289 213.36 334.349 213.46 334.402L237.701 347.283C238.466 347.689 239.364 347.775 240.196 347.522C241.028 347.27 241.72 346.698 242.126 345.926C242.971 344.33 242.372 342.355 240.775 341.504L231.619 336.65C233.322 336.044 234.933 335.22 236.416 334.182L249.425 341.098C251.022 341.943 253.005 341.338 253.85 339.742C254.256 338.977 254.343 338.079 254.09 337.248C253.837 336.417 253.265 335.725 252.493 335.32L241.267 329.355C241.786 328.616 242.259 327.845 242.678 327.047C242.951 326.528 243.164 326.003 243.41 325.471L254.157 331.183C255.754 332.028 257.736 331.429 258.588 329.833C258.994 329.069 259.081 328.171 258.828 327.34C258.575 326.508 258.003 325.817 257.231 325.404L244.914 318.854C245.014 316.979 244.847 315.097 244.428 313.268L257.51 320.217C259.107 321.062 261.084 320.463 261.935 318.867C262.348 318.096 262.434 317.198 262.175 316.367C261.922 315.536 261.343 314.838 260.571 314.432L260.564 314.445Z" stroke="#FEFDFA" stroke-width="1.5" stroke-linecap="square" stroke-linejoin="round"/>
</svg>
