<?xml version="1.0" encoding="UTF-8"?> <svg xmlns="http://www.w3.org/2000/svg" width="34" height="34" viewBox="0 0 34 34" fill="none"><path fill-rule="evenodd" clip-rule="evenodd" d="M17 34C26.3888 34 34 26.3888 34 17C34 7.61116 26.3888 0 17 0C7.61116 0 0 7.61116 0 17C0 26.3888 7.61116 34 17 34ZM17 10.625C15.2396 10.625 13.8125 12.0521 13.8125 13.8125V14.875H9.5625V13.8125C9.5625 9.70488 12.8924 6.375 17 6.375C21.1076 6.375 24.4375 9.70488 24.4375 13.8125C24.4375 17.9201 21.1076 21.25 17 21.25H14.875V17H17C18.7604 17 20.1875 15.5729 20.1875 13.8125C20.1875 12.0521 18.7604 10.625 17 10.625ZM19.125 23.375V27.625H14.875V23.375H19.125Z" fill="#FAF6ED"></path></svg> 