<svg width="167" height="68" viewBox="0 0 167 68" fill="none" xmlns="http://www.w3.org/2000/svg">
<path d="M44.7581 52.1402L66.7112 64.9339C67.7709 65.55 68.8983 66.0458 70.0707 66.4139C72.8139 67.3379 75.76 67.4882 78.5859 66.8496L138.801 53.1919C138.891 53.1919 138.981 53.1619 139.071 53.1468L160.243 48.5492C161.633 48.2487 162.513 46.8739 162.22 45.4841C161.919 44.0943 160.544 43.2153 159.153 43.5083L151.157 45.2512C151.878 44.0191 152.419 42.6969 152.787 41.3221L164.144 38.8505C165.534 38.55 166.413 37.1752 166.113 35.7854C165.812 34.3956 164.437 33.5091 163.046 33.8096L153.238 35.9507C153.178 35.237 153.066 34.5308 152.908 33.8322C152.81 33.3814 152.682 32.9457 152.547 32.5175L161.919 30.4515C163.309 30.151 164.196 28.7763 163.895 27.3865C163.595 25.9966 162.22 25.1102 160.829 25.4107L150.067 27.7546C149.165 26.5751 148.105 25.5234 146.91 24.6444L158.334 22.1578C159.724 21.8573 160.604 20.4825 160.303 19.0926C160.002 17.7028 158.627 16.8239 157.237 17.1169L136.884 21.5192C135.915 21.5568 134.945 21.6845 133.991 21.9023L123.401 24.3138L132.601 11.3773C133.427 10.2129 133.149 8.59768 131.984 7.77882C130.819 6.95244 129.203 7.23041 128.384 8.39485L115.878 26.0192L78.9767 34.3881L25.5032 3.21872C17.732 -1.31131 7.7588 1.31807 3.21937 9.07849C-1.31254 16.8464 1.31792 26.823 9.08906 31.3531" stroke="#C3C8C9" stroke-width="1.5" stroke-linecap="square" stroke-linejoin="round"/>
</svg>
