<svg width="99" height="155" viewBox="0 0 99 155" fill="none" xmlns="http://www.w3.org/2000/svg">
<path d="M96.8247 132.358L81.6356 118.122C81.0494 117.34 80.4031 116.619 79.6816 115.958L71.7075 108.611L87.5429 108.836C88.4898 108.881 89.3842 108.408 89.8727 107.604C90.3612 106.8 90.3838 105.786 89.9103 104.967C89.4368 104.148 88.5575 103.653 87.6105 103.675L66.0031 103.367L38.1729 77.7345L33.5357 16.0493C32.8518 7.08694 25.0356 0.37076 16.0695 1.04688C11.763 1.36992 7.7572 3.39079 4.93884 6.66624C2.12049 9.94169 0.722593 14.2013 1.04576 18.5059L6.02861 84.9841C6.12632 86.2086 6.35177 87.4181 6.72004 88.5901C7.51669 91.3697 9.0649 93.8864 11.1993 95.8396L56.6162 137.647C56.6763 137.714 56.7364 137.782 56.804 137.842L72.6094 152.657C73.1054 153.122 73.7743 153.378 74.4582 153.355C75.1421 153.333 75.7885 153.04 76.2619 152.544C76.7279 152.041 76.9834 151.38 76.9609 150.696C76.9383 150.012 76.6452 149.366 76.1417 148.893L70.1743 143.296C71.5947 143.191 72.9927 142.898 74.3379 142.425L82.8155 150.373C83.3191 150.839 83.9805 151.094 84.6644 151.072C85.3483 151.049 85.9947 150.756 86.4681 150.253C87.4452 149.216 87.385 147.578 86.3479 146.602L79.0277 139.743C79.5763 139.292 80.0949 138.804 80.5834 138.278C80.8916 137.94 81.1847 137.587 81.4627 137.233L88.4748 143.807C89.512 144.784 91.1504 144.723 92.1274 143.687C92.5934 143.183 92.8489 142.522 92.8263 141.839C92.8038 141.155 92.5107 140.509 92.0071 140.036L83.9805 132.508C84.4389 131.096 84.6945 129.631 84.7471 128.151L93.2773 136.144C93.7808 136.61 94.4422 136.865 95.1261 136.843C95.81 136.82 96.4564 136.527 96.9299 136.024C97.4033 135.528 97.6589 134.86 97.6363 134.168C97.6138 133.477 97.3207 132.831 96.8171 132.358H96.8247Z" stroke="#102228" stroke-width="1.5" stroke-linecap="square" stroke-linejoin="round"/>
</svg>
